<mxfile host="app.diagrams.net" modified="2023-04-22T14:55:03.369Z" agent="Mozilla/5.0 (Windows NT 10.0; Win64; x64) AppleWebKit/537.36 (KHTML, like Gecko) Chrome/112.0.0.0 Safari/537.36" etag="SqPja2AuyzX6IA2sN2k4" version="21.2.1" type="github">
  <diagram id="9ROl1x6hDxgJ7iOvlsEE" name="Page-1">
    <mxGraphModel dx="2954" dy="1124" grid="1" gridSize="10" guides="1" tooltips="1" connect="1" arrows="1" fold="1" page="1" pageScale="1" pageWidth="827" pageHeight="1169" math="0" shadow="0">
      <root>
        <mxCell id="0" />
        <mxCell id="1" parent="0" />
        <mxCell id="Pn8fTQrSeP5vRvdxLiqo-7" style="edgeStyle=orthogonalEdgeStyle;rounded=0;orthogonalLoop=1;jettySize=auto;html=1;entryX=0.632;entryY=-0.075;entryDx=0;entryDy=0;entryPerimeter=0;" parent="1" source="Pn8fTQrSeP5vRvdxLiqo-1" target="Pn8fTQrSeP5vRvdxLiqo-5" edge="1">
          <mxGeometry relative="1" as="geometry">
            <Array as="points">
              <mxPoint x="332" y="155" />
            </Array>
          </mxGeometry>
        </mxCell>
        <mxCell id="Pn8fTQrSeP5vRvdxLiqo-9" style="edgeStyle=orthogonalEdgeStyle;rounded=0;orthogonalLoop=1;jettySize=auto;html=1;entryX=0.414;entryY=0;entryDx=0;entryDy=0;entryPerimeter=0;" parent="1" source="Pn8fTQrSeP5vRvdxLiqo-1" target="Pn8fTQrSeP5vRvdxLiqo-4" edge="1">
          <mxGeometry relative="1" as="geometry">
            <mxPoint x="14" y="190" as="targetPoint" />
            <Array as="points">
              <mxPoint x="66" y="155" />
            </Array>
          </mxGeometry>
        </mxCell>
        <mxCell id="Pn8fTQrSeP5vRvdxLiqo-1" value="Height &amp;gt; 120cm?" style="rhombus;whiteSpace=wrap;html=1;" parent="1" vertex="1">
          <mxGeometry x="117" y="110" width="160" height="90" as="geometry" />
        </mxCell>
        <mxCell id="Pn8fTQrSeP5vRvdxLiqo-3" style="edgeStyle=orthogonalEdgeStyle;rounded=0;orthogonalLoop=1;jettySize=auto;html=1;" parent="1" source="Pn8fTQrSeP5vRvdxLiqo-2" target="Pn8fTQrSeP5vRvdxLiqo-1" edge="1">
          <mxGeometry relative="1" as="geometry" />
        </mxCell>
        <mxCell id="Pn8fTQrSeP5vRvdxLiqo-2" value="Start" style="rounded=1;whiteSpace=wrap;html=1;fillColor=#d5e8d4;strokeColor=#82b366;" parent="1" vertex="1">
          <mxGeometry x="137" y="20" width="120" height="40" as="geometry" />
        </mxCell>
        <mxCell id="Pn8fTQrSeP5vRvdxLiqo-4" value="Can&#39;t ride" style="rounded=1;whiteSpace=wrap;html=1;" parent="1" vertex="1">
          <mxGeometry x="30" y="210" width="87" height="40" as="geometry" />
        </mxCell>
        <mxCell id="DJ92_PNdtjdrQYHPgFHg-2" style="edgeStyle=orthogonalEdgeStyle;rounded=0;orthogonalLoop=1;jettySize=auto;html=1;" parent="1" source="Pn8fTQrSeP5vRvdxLiqo-5" target="DJ92_PNdtjdrQYHPgFHg-1" edge="1">
          <mxGeometry relative="1" as="geometry" />
        </mxCell>
        <mxCell id="Pn8fTQrSeP5vRvdxLiqo-5" value="Can ride" style="rounded=1;whiteSpace=wrap;html=1;" parent="1" vertex="1">
          <mxGeometry x="277" y="210" width="87" height="40" as="geometry" />
        </mxCell>
        <mxCell id="Pn8fTQrSeP5vRvdxLiqo-10" value="No" style="text;html=1;align=center;verticalAlign=middle;resizable=0;points=[];autosize=1;" parent="1" vertex="1">
          <mxGeometry x="87" y="139" width="30" height="20" as="geometry" />
        </mxCell>
        <mxCell id="Pn8fTQrSeP5vRvdxLiqo-11" value="Yes" style="text;html=1;align=center;verticalAlign=middle;resizable=0;points=[];autosize=1;" parent="1" vertex="1">
          <mxGeometry x="284" y="139" width="40" height="20" as="geometry" />
        </mxCell>
        <mxCell id="DJ92_PNdtjdrQYHPgFHg-4" value="" style="edgeStyle=orthogonalEdgeStyle;rounded=0;orthogonalLoop=1;jettySize=auto;html=1;entryX=0.5;entryY=0;entryDx=0;entryDy=0;" parent="1" source="DJ92_PNdtjdrQYHPgFHg-1" target="DJ92_PNdtjdrQYHPgFHg-6" edge="1">
          <mxGeometry relative="1" as="geometry">
            <mxPoint x="200.5" y="325" as="targetPoint" />
          </mxGeometry>
        </mxCell>
        <mxCell id="DJ92_PNdtjdrQYHPgFHg-10" style="edgeStyle=orthogonalEdgeStyle;rounded=0;orthogonalLoop=1;jettySize=auto;html=1;entryX=0.5;entryY=0;entryDx=0;entryDy=0;" parent="1" source="DJ92_PNdtjdrQYHPgFHg-1" target="DJ92_PNdtjdrQYHPgFHg-8" edge="1">
          <mxGeometry relative="1" as="geometry" />
        </mxCell>
        <mxCell id="DJ92_PNdtjdrQYHPgFHg-12" style="edgeStyle=orthogonalEdgeStyle;rounded=0;orthogonalLoop=1;jettySize=auto;html=1;entryX=0.5;entryY=0;entryDx=0;entryDy=0;" parent="1" source="DJ92_PNdtjdrQYHPgFHg-1" target="DJ92_PNdtjdrQYHPgFHg-9" edge="1">
          <mxGeometry relative="1" as="geometry" />
        </mxCell>
        <mxCell id="P0YZWzTBPZSe8vXTTiBm-2" style="edgeStyle=orthogonalEdgeStyle;rounded=0;orthogonalLoop=1;jettySize=auto;html=1;exitX=1;exitY=0.5;exitDx=0;exitDy=0;entryX=0.5;entryY=0;entryDx=0;entryDy=0;" parent="1" source="DJ92_PNdtjdrQYHPgFHg-1" target="P0YZWzTBPZSe8vXTTiBm-1" edge="1">
          <mxGeometry relative="1" as="geometry" />
        </mxCell>
        <mxCell id="DJ92_PNdtjdrQYHPgFHg-1" value="age" style="rhombus;whiteSpace=wrap;html=1;" parent="1" vertex="1">
          <mxGeometry x="280.5" y="300" width="80" height="50" as="geometry" />
        </mxCell>
        <mxCell id="DJ92_PNdtjdrQYHPgFHg-22" style="edgeStyle=orthogonalEdgeStyle;rounded=0;orthogonalLoop=1;jettySize=auto;html=1;entryX=0;entryY=0;entryDx=0;entryDy=0;" parent="1" source="DJ92_PNdtjdrQYHPgFHg-6" edge="1">
          <mxGeometry relative="1" as="geometry">
            <Array as="points">
              <mxPoint x="135" y="480" />
              <mxPoint x="293" y="480" />
            </Array>
            <mxPoint x="293" y="540" as="targetPoint" />
          </mxGeometry>
        </mxCell>
        <mxCell id="DJ92_PNdtjdrQYHPgFHg-6" value="+$5" style="rounded=1;whiteSpace=wrap;html=1;" parent="1" vertex="1">
          <mxGeometry x="90" y="380" width="90" height="40" as="geometry" />
        </mxCell>
        <mxCell id="DJ92_PNdtjdrQYHPgFHg-7" value="Less than 12" style="text;html=1;align=center;verticalAlign=middle;resizable=0;points=[];autosize=1;" parent="1" vertex="1">
          <mxGeometry x="190" y="300" width="80" height="20" as="geometry" />
        </mxCell>
        <mxCell id="DJ92_PNdtjdrQYHPgFHg-20" style="edgeStyle=orthogonalEdgeStyle;rounded=0;orthogonalLoop=1;jettySize=auto;html=1;" parent="1" source="DJ92_PNdtjdrQYHPgFHg-8" edge="1">
          <mxGeometry relative="1" as="geometry">
            <mxPoint x="320.5" y="520" as="targetPoint" />
          </mxGeometry>
        </mxCell>
        <mxCell id="DJ92_PNdtjdrQYHPgFHg-8" value="+$7" style="rounded=1;whiteSpace=wrap;html=1;" parent="1" vertex="1">
          <mxGeometry x="275.5" y="380" width="90" height="40" as="geometry" />
        </mxCell>
        <mxCell id="DJ92_PNdtjdrQYHPgFHg-21" style="edgeStyle=orthogonalEdgeStyle;rounded=0;orthogonalLoop=1;jettySize=auto;html=1;entryX=1;entryY=0;entryDx=0;entryDy=0;" parent="1" source="DJ92_PNdtjdrQYHPgFHg-9" edge="1">
          <mxGeometry relative="1" as="geometry">
            <Array as="points">
              <mxPoint x="505" y="480" />
              <mxPoint x="348" y="480" />
            </Array>
            <mxPoint x="348" y="540" as="targetPoint" />
          </mxGeometry>
        </mxCell>
        <mxCell id="DJ92_PNdtjdrQYHPgFHg-9" value="+$12" style="rounded=1;whiteSpace=wrap;html=1;" parent="1" vertex="1">
          <mxGeometry x="460" y="380" width="90" height="40" as="geometry" />
        </mxCell>
        <mxCell id="DJ92_PNdtjdrQYHPgFHg-11" value="12-18" style="text;html=1;align=center;verticalAlign=middle;resizable=0;points=[];autosize=1;" parent="1" vertex="1">
          <mxGeometry x="315.5" y="350" width="50" height="20" as="geometry" />
        </mxCell>
        <mxCell id="DJ92_PNdtjdrQYHPgFHg-13" value="18 or over" style="text;html=1;align=center;verticalAlign=middle;resizable=0;points=[];autosize=1;" parent="1" vertex="1">
          <mxGeometry x="390" y="300" width="70" height="20" as="geometry" />
        </mxCell>
        <mxCell id="DJ92_PNdtjdrQYHPgFHg-26" value="" style="rounded=0;whiteSpace=wrap;html=1;strokeColor=#6c8ebf;fillColor=none;dashed=1;" parent="1" vertex="1">
          <mxGeometry x="570" y="280" width="170" height="160" as="geometry" />
        </mxCell>
        <mxCell id="9MXk6XgK2K2qiyMjHyPM-3" value="" style="edgeStyle=orthogonalEdgeStyle;rounded=0;orthogonalLoop=1;jettySize=auto;html=1;" parent="1" source="P0YZWzTBPZSe8vXTTiBm-1" target="hvv-ofDeiJ9VuyK1SL6k-3" edge="1">
          <mxGeometry relative="1" as="geometry">
            <mxPoint x="510" y="520" as="targetPoint" />
            <Array as="points">
              <mxPoint x="685" y="520" />
            </Array>
          </mxGeometry>
        </mxCell>
        <mxCell id="P0YZWzTBPZSe8vXTTiBm-1" value="+$0" style="rounded=1;whiteSpace=wrap;html=1;" parent="1" vertex="1">
          <mxGeometry x="640" y="380" width="90" height="40" as="geometry" />
        </mxCell>
        <mxCell id="P0YZWzTBPZSe8vXTTiBm-3" value="Aged 45 - 55" style="text;html=1;align=center;verticalAlign=middle;resizable=0;points=[];autosize=1;" parent="1" vertex="1">
          <mxGeometry x="575" y="300" width="80" height="20" as="geometry" />
        </mxCell>
        <mxCell id="hvv-ofDeiJ9VuyK1SL6k-1" style="edgeStyle=orthogonalEdgeStyle;rounded=0;orthogonalLoop=1;jettySize=auto;html=1;" parent="1" source="hvv-ofDeiJ9VuyK1SL6k-3" target="hvv-ofDeiJ9VuyK1SL6k-5" edge="1">
          <mxGeometry relative="1" as="geometry" />
        </mxCell>
        <mxCell id="hvv-ofDeiJ9VuyK1SL6k-2" style="edgeStyle=orthogonalEdgeStyle;rounded=0;orthogonalLoop=1;jettySize=auto;html=1;exitX=0;exitY=0.5;exitDx=0;exitDy=0;entryX=0.25;entryY=0;entryDx=0;entryDy=0;" parent="1" source="hvv-ofDeiJ9VuyK1SL6k-3" target="hvv-ofDeiJ9VuyK1SL6k-7" edge="1">
          <mxGeometry relative="1" as="geometry" />
        </mxCell>
        <mxCell id="hvv-ofDeiJ9VuyK1SL6k-3" value="want &lt;br&gt;photos?" style="rhombus;whiteSpace=wrap;html=1;strokeColor=#000000;fillColor=none;" parent="1" vertex="1">
          <mxGeometry x="266" y="520" width="109" height="80" as="geometry" />
        </mxCell>
        <mxCell id="hvv-ofDeiJ9VuyK1SL6k-4" style="edgeStyle=orthogonalEdgeStyle;rounded=0;orthogonalLoop=1;jettySize=auto;html=1;exitX=0.5;exitY=1;exitDx=0;exitDy=0;entryX=0.5;entryY=0;entryDx=0;entryDy=0;" parent="1" source="hvv-ofDeiJ9VuyK1SL6k-5" target="hvv-ofDeiJ9VuyK1SL6k-7" edge="1">
          <mxGeometry relative="1" as="geometry" />
        </mxCell>
        <mxCell id="hvv-ofDeiJ9VuyK1SL6k-5" value="+$3" style="rounded=1;whiteSpace=wrap;html=1;strokeColor=#000000;fillColor=none;" parent="1" vertex="1">
          <mxGeometry x="393" y="610" width="100" height="40" as="geometry" />
        </mxCell>
        <mxCell id="hvv-ofDeiJ9VuyK1SL6k-6" value="Yes" style="text;html=1;align=center;verticalAlign=middle;resizable=0;points=[];autosize=1;" parent="1" vertex="1">
          <mxGeometry x="393" y="540" width="40" height="20" as="geometry" />
        </mxCell>
        <mxCell id="hvv-ofDeiJ9VuyK1SL6k-7" value="The total bill is $x" style="rounded=1;whiteSpace=wrap;html=1;strokeColor=#000000;fillColor=none;" parent="1" vertex="1">
          <mxGeometry x="257" y="700" width="129.5" height="40" as="geometry" />
        </mxCell>
        <mxCell id="hvv-ofDeiJ9VuyK1SL6k-8" value="No" style="text;html=1;align=center;verticalAlign=middle;resizable=0;points=[];autosize=1;" parent="1" vertex="1">
          <mxGeometry x="236" y="540" width="30" height="20" as="geometry" />
        </mxCell>
        <mxCell id="9lluSZKIOXprFLV6rFS0-1" value="" style="rounded=0;whiteSpace=wrap;html=1;" vertex="1" parent="1">
          <mxGeometry x="660" y="110" width="120" height="60" as="geometry" />
        </mxCell>
        <mxCell id="9lluSZKIOXprFLV6rFS0-2" value="elif" style="rounded=0;whiteSpace=wrap;html=1;fillColor=#ffe6cc;strokeColor=#d79b00;" vertex="1" parent="1">
          <mxGeometry x="610" y="259" width="40" height="21" as="geometry" />
        </mxCell>
        <mxCell id="9lluSZKIOXprFLV6rFS0-6" value="Nested IF" style="rounded=0;whiteSpace=wrap;html=1;fillColor=#ffe6cc;strokeColor=#d79b00;" vertex="1" parent="1">
          <mxGeometry x="207" y="260" width="50" height="31" as="geometry" />
        </mxCell>
        <mxCell id="9lluSZKIOXprFLV6rFS0-7" value="elif" style="rounded=0;whiteSpace=wrap;html=1;fillColor=#ffe6cc;strokeColor=#d79b00;" vertex="1" parent="1">
          <mxGeometry x="405" y="260" width="40" height="21" as="geometry" />
        </mxCell>
        <mxCell id="9lluSZKIOXprFLV6rFS0-8" value="If" style="rounded=0;whiteSpace=wrap;html=1;fillColor=#ffe6cc;strokeColor=#d79b00;" vertex="1" parent="1">
          <mxGeometry x="300" y="100" width="40" height="21" as="geometry" />
        </mxCell>
        <mxCell id="9lluSZKIOXprFLV6rFS0-9" value="ELSE" style="rounded=0;whiteSpace=wrap;html=1;fillColor=#ffe6cc;strokeColor=#d79b00;" vertex="1" parent="1">
          <mxGeometry x="40" y="100" width="40" height="21" as="geometry" />
        </mxCell>
      </root>
    </mxGraphModel>
  </diagram>
</mxfile>
